<mxfile host="app.diagrams.net" modified="2024-04-19T17:08:29.467Z" agent="Mozilla/5.0 (Windows NT 10.0; Win64; x64) AppleWebKit/537.36 (KHTML, like Gecko) Chrome/121.0.0.0 Safari/537.36 OPR/107.0.0.0" etag="PZ6ps2oUdGiZqVcxkrWN" version="24.2.7" type="device">
  <diagram id="qgoBvdPZxKDUMGTk0vId" name="PÃ¡gina-1">
    <mxGraphModel dx="7927" dy="4013" grid="1" gridSize="10" guides="1" tooltips="1" connect="1" arrows="1" fold="1" page="0" pageScale="1" pageWidth="827" pageHeight="1169" background="none" math="0" shadow="0">
      <root>
        <mxCell id="0" />
        <mxCell id="1" parent="0" />
        <mxCell id="node21" value="&lt;p style=&quot;margin:0px;margin-top:4px;text-align:center;&quot;&gt;&lt;b&gt;Beneficio&lt;/b&gt;&lt;/p&gt;&lt;hr size=&quot;1&quot;/&gt;&lt;p style=&quot;margin:0 0 0 4px;line-height:1.6;&quot;&gt;- donatario: Donatario&lt;br/&gt;- idBeneficio: Integer&lt;br/&gt;- nome: String&lt;br/&gt;- valor: Double&lt;/p&gt;&lt;hr size=&quot;1&quot;/&gt;&lt;p style=&quot;margin:0 0 0 4px;line-height:1.6;&quot;&gt;+ getIdBeneficio(): Integer&lt;br/&gt;+ getNome(): String&lt;br/&gt;+ getValor(): Double&lt;br/&gt;+ getDonatario(): Donatario&lt;br/&gt;+ setIdBeneficio(Integer): void&lt;br/&gt;+ setNome(String): void&lt;br/&gt;+ setValor(Double): void&lt;br/&gt;+ setDonatario(Donatario): void&lt;br/&gt;+ builder(): BeneficioBuilder&lt;/p&gt;" style="verticalAlign=top;align=left;overflow=fill;fontSize=14;fontFamily=Helvetica;html=1;rounded=0;shadow=0;comic=0;labelBackgroundColor=none;strokeWidth=1;" parent="1" vertex="1">
          <mxGeometry x="-739.5" y="2270" width="231" height="354" as="geometry" />
        </mxCell>
        <mxCell id="node10" value="&lt;p style=&quot;margin:0px;margin-top:4px;text-align:center;&quot;&gt;&lt;b&gt;BeneficioController&lt;/b&gt;&lt;/p&gt;&lt;hr size=&quot;1&quot;/&gt;&lt;p style=&quot;margin:0 0 0 4px;line-height:1.6;&quot;&gt;- beneficioRepositorio: BeneficioRepositorio&lt;br/&gt;- donatarioRepositorio: DonatarioRepositorio&lt;/p&gt;" style="verticalAlign=top;align=left;overflow=fill;fontSize=14;fontFamily=Helvetica;html=1;rounded=0;shadow=0;comic=0;labelBackgroundColor=none;strokeWidth=1;" parent="1" vertex="1">
          <mxGeometry x="-1095" y="2270" width="314" height="94" as="geometry" />
        </mxCell>
        <mxCell id="node31" value="&lt;p style=&quot;margin:0px;margin-top:4px;text-align:center;&quot;&gt;&lt;b&gt;Despesa&lt;/b&gt;&lt;/p&gt;&lt;hr size=&quot;1&quot;/&gt;&lt;p style=&quot;margin:0 0 0 4px;line-height:1.6;&quot;&gt;- gasto: Double&lt;br/&gt;- idDespesa: Integer&lt;br/&gt;- familia: Familia&lt;br/&gt;- tipo: String&lt;/p&gt;&lt;hr size=&quot;1&quot;/&gt;&lt;p style=&quot;margin:0 0 0 4px;line-height:1.6;&quot;&gt;+ getIdDespesa(): Integer&lt;br/&gt;+ getFamilia(): Familia&lt;br/&gt;+ getTipo(): String&lt;br/&gt;+ getGasto(): Double&lt;br/&gt;+ setIdDespesa(Integer): void&lt;br/&gt;+ setFamilia(Familia): void&lt;br/&gt;+ setTipo(String): void&lt;br/&gt;+ setGasto(Double): void&lt;br/&gt;+ builder(): DespesaBuilder&lt;/p&gt;" style="verticalAlign=top;align=left;overflow=fill;fontSize=14;fontFamily=Helvetica;html=1;rounded=0;shadow=0;comic=0;labelBackgroundColor=none;strokeWidth=1;" parent="1" vertex="1">
          <mxGeometry x="1490" y="2280" width="218" height="354" as="geometry" />
        </mxCell>
        <mxCell id="node35" value="&lt;p style=&quot;margin:0px;margin-top:4px;text-align:center;&quot;&gt;&lt;b&gt;DespesaController&lt;/b&gt;&lt;/p&gt;&lt;hr size=&quot;1&quot;/&gt;&lt;p style=&quot;margin:0 0 0 4px;line-height:1.6;&quot;&gt;- DespesaRepositorio: DespesaRepositorio&lt;br/&gt;- donatarioRepositorio: DonatarioRepositorio&lt;/p&gt;" style="verticalAlign=top;align=left;overflow=fill;fontSize=14;fontFamily=Helvetica;html=1;rounded=0;shadow=0;comic=0;labelBackgroundColor=none;strokeWidth=1;" parent="1" vertex="1">
          <mxGeometry x="1110" y="2270" width="314" height="94" as="geometry" />
        </mxCell>
        <mxCell id="node11" value="&lt;p style=&quot;margin:0px;margin-top:4px;text-align:center;&quot;&gt;&lt;b&gt;Doacoes&lt;/b&gt;&lt;/p&gt;&lt;hr size=&quot;1&quot;/&gt;&lt;p style=&quot;margin:0 0 0 4px;line-height:1.6;&quot;&gt;- dataDoacao: LocalDate&lt;br/&gt;- peso: Double&lt;br/&gt;- statusDoacao: char&lt;br/&gt;- instituicao: Instituicao&lt;br/&gt;- idDoacoes: Integer&lt;br/&gt;- descricao: String&lt;br/&gt;- donatario: Donatario&lt;/p&gt;" style="verticalAlign=top;align=left;overflow=fill;fontSize=14;fontFamily=Helvetica;html=1;rounded=0;shadow=0;comic=0;labelBackgroundColor=none;strokeWidth=1;" parent="1" vertex="1">
          <mxGeometry x="-740" y="1470" width="189" height="207" as="geometry" />
        </mxCell>
        <mxCell id="node5" value="&lt;p style=&quot;margin:0px;margin-top:4px;text-align:center;&quot;&gt;&lt;b&gt;DoacoesController&lt;/b&gt;&lt;/p&gt;&lt;hr size=&quot;1&quot;/&gt;&lt;p style=&quot;margin:0 0 0 4px;line-height:1.6;&quot;&gt;- donatarioRepositorio: DonatarioRepositorio&lt;br/&gt;- familiarRepositorio: FamiliarRepositorio&lt;/p&gt;" style="verticalAlign=top;align=left;overflow=fill;fontSize=14;fontFamily=Helvetica;html=1;rounded=0;shadow=0;comic=0;labelBackgroundColor=none;strokeWidth=1;" parent="1" vertex="1">
          <mxGeometry x="-1097" y="1470" width="314" height="94" as="geometry" />
        </mxCell>
        <mxCell id="node16" value="&lt;p style=&quot;margin:0px;margin-top:4px;text-align:center;&quot;&gt;&lt;b&gt;Donatario&lt;/b&gt;&lt;/p&gt;&lt;hr size=&quot;1&quot;/&gt;&lt;p style=&quot;margin:0 0 0 4px;line-height:1.6;&quot;&gt;- rg: String&lt;br/&gt;- trabalhando: Boolean&lt;br/&gt;- estadoCivil: String&lt;br/&gt;- telefone1: String&lt;br/&gt;- idDonatario: Integer&lt;br/&gt;- familia: Familia&lt;br/&gt;- telefone2: String&lt;br/&gt;- ocupacao: String&lt;br/&gt;- cpf: String&lt;br/&gt;- escolaridade: String&lt;br/&gt;- dataNascimento: LocalDate&lt;br/&gt;- nome: String&lt;br/&gt;- dataCadastro: String&lt;/p&gt;&lt;hr size=&quot;1&quot;/&gt;&lt;p style=&quot;margin:0 0 0 4px;line-height:1.6;&quot;&gt;+ getNome(): String&lt;br/&gt;+ getIdDonatario(): Integer&lt;br/&gt;+ setNome(String): void&lt;br/&gt;+ setFamilia(Familia): void&lt;br/&gt;+ getEscolaridade(): String&lt;br/&gt;+ getDataCadastro(): String&lt;br/&gt;+ getOcupacao(): String&lt;br/&gt;+ setRg(String): void&lt;br/&gt;+ setDataNascimento(LocalDate): void&lt;br/&gt;+ builder(): DonatarioBuilder&lt;br/&gt;+ setDataCadastro(String): void&lt;br/&gt;+ getRg(): String&lt;br/&gt;+ setTelefone1(String): void&lt;br/&gt;+ setTelefone2(String): void&lt;br/&gt;+ setEscolaridade(String): void&lt;br/&gt;+ getCpf(): String&lt;br/&gt;+ setEstadoCivil(String): void&lt;br/&gt;+ getFamilia(): Familia&lt;br/&gt;+ getDataNascimento(): LocalDate&lt;br/&gt;+ setIdDonatario(Integer): void&lt;br/&gt;+ setOcupacao(String): void&lt;br/&gt;+ getTelefone1(): String&lt;br/&gt;+ getTelefone2(): String&lt;br/&gt;+ getEstadoCivil(): String&lt;br/&gt;+ getTrabalhando(): Boolean&lt;br/&gt;+ setTrabalhando(Boolean): void&lt;br/&gt;+ setCpf(String): void&lt;/p&gt;" style="verticalAlign=top;align=left;overflow=fill;fontSize=14;fontFamily=Helvetica;html=1;rounded=0;shadow=0;comic=0;labelBackgroundColor=none;strokeWidth=1;" parent="1" vertex="1">
          <mxGeometry x="3383" y="-80" width="274" height="1002" as="geometry" />
        </mxCell>
        <mxCell id="node37" value="&lt;p style=&quot;margin:0px;margin-top:4px;text-align:center;&quot;&gt;&lt;b&gt;DonatarioController&lt;/b&gt;&lt;/p&gt;&lt;hr size=&quot;1&quot;/&gt;&lt;p style=&quot;margin:0 0 0 4px;line-height:1.6;&quot;&gt;- donatarioRepositorio: DonatarioRepositorio&lt;/p&gt;" style="verticalAlign=top;align=left;overflow=fill;fontSize=14;fontFamily=Helvetica;html=1;rounded=0;shadow=0;comic=0;labelBackgroundColor=none;strokeWidth=1;" parent="1" vertex="1">
          <mxGeometry x="3030" y="-80" width="314" height="68" as="geometry" />
        </mxCell>
        <mxCell id="node36" value="&lt;p style=&quot;margin:0px;margin-top:4px;text-align:center;&quot;&gt;&lt;b&gt;Familia&lt;/b&gt;&lt;/p&gt;&lt;hr size=&quot;1&quot;/&gt;&lt;p style=&quot;margin:0 0 0 4px;line-height:1.6;&quot;&gt;- renda: Double&lt;br/&gt;- idFamilia: int&lt;br/&gt;- numeroCasa: Integer&lt;br/&gt;- cep: String&lt;br/&gt;- nome: String&lt;/p&gt;&lt;hr size=&quot;1&quot;/&gt;&lt;p style=&quot;margin:0 0 0 4px;line-height:1.6;&quot;&gt;+ getIdFamilia(): int&lt;br/&gt;+ getNome(): String&lt;br/&gt;+ setRenda(Double): void&lt;br/&gt;+ getCep(): String&lt;br/&gt;+ getNumeroCasa(): Integer&lt;br/&gt;+ getRenda(): Double&lt;br/&gt;+ setIdFamilia(int): void&lt;br/&gt;+ setNome(String): void&lt;br/&gt;+ setCep(String): void&lt;br/&gt;+ builder(): FamiliaBuilder&lt;br/&gt;+ setNumeroCasa(Integer): void&lt;/p&gt;" style="verticalAlign=top;align=left;overflow=fill;fontSize=14;fontFamily=Helvetica;html=1;rounded=0;shadow=0;comic=0;labelBackgroundColor=none;strokeWidth=1;" parent="1" vertex="1">
          <mxGeometry x="-740" y="760" width="232" height="426" as="geometry" />
        </mxCell>
        <mxCell id="node19" value="&lt;p style=&quot;margin:0px;margin-top:4px;text-align:center;&quot;&gt;&lt;b&gt;FamiliarController&lt;/b&gt;&lt;/p&gt;&lt;hr size=&quot;1&quot;/&gt;" style="verticalAlign=top;align=left;overflow=fill;fontSize=14;fontFamily=Helvetica;html=1;rounded=0;shadow=0;comic=0;labelBackgroundColor=none;strokeWidth=1;" parent="1" vertex="1">
          <mxGeometry x="-970" y="760" width="187" height="30" as="geometry" />
        </mxCell>
        <mxCell id="node22" value="&lt;p style=&quot;margin:0px;margin-top:4px;text-align:center;&quot;&gt;&lt;b&gt;Instituicao&lt;/b&gt;&lt;/p&gt;&lt;hr size=&quot;1&quot;/&gt;&lt;p style=&quot;margin:0 0 0 4px;line-height:1.6;&quot;&gt;- descricao: String&lt;br/&gt;- idInstituicao: int&lt;br/&gt;- numeroImovel: String&lt;br/&gt;- fotoPerfil: byte[]&lt;br/&gt;- nomeInstituicao: String&lt;br/&gt;- cep: String&lt;/p&gt;&lt;hr size=&quot;1&quot;/&gt;&lt;p style=&quot;margin:0 0 0 4px;line-height:1.6;&quot;&gt;+ getIdInstituicao(): int&lt;br/&gt;+ getNomeInstituicao(): String&lt;br/&gt;+ getCep(): String&lt;br/&gt;+ getNumeroImovel(): String&lt;br/&gt;+ getDescricao(): String&lt;br/&gt;+ getFotoPerfil(): byte[]&lt;br/&gt;+ setFotoPerfil(byte[]): void&lt;br/&gt;+ setIdInstituicao(int): void&lt;br/&gt;+ setNomeInstituicao(String): void&lt;br/&gt;+ setDescricao(String): void&lt;br/&gt;+ setCep(String): void&lt;br/&gt;+ setNumeroImovel(String): void&lt;br/&gt;+ builder(): InstituicaoBuilder&lt;/p&gt;" style="verticalAlign=top;align=left;overflow=fill;fontSize=14;fontFamily=Helvetica;html=1;rounded=0;shadow=0;comic=0;labelBackgroundColor=none;strokeWidth=1;" parent="1" vertex="1">
          <mxGeometry x="-70" y="-79.5" width="247" height="498" as="geometry" />
        </mxCell>
        <mxCell id="node6" value="&lt;p style=&quot;margin:0px;margin-top:4px;text-align:center;&quot;&gt;&lt;b&gt;InstituicaoAtualizarDto&lt;/b&gt;&lt;/p&gt;&lt;hr size=&quot;1&quot;/&gt;&lt;p style=&quot;margin:0 0 0 4px;line-height:1.6;&quot;&gt;- nomeInstituicao: String&lt;br/&gt;- descricao: String&lt;br/&gt;- numeroImovel: String&lt;br/&gt;- fotoPerfil: byte[]&lt;br/&gt;- cep: String&lt;/p&gt;&lt;hr size=&quot;1&quot;/&gt;&lt;p style=&quot;margin:0 0 0 4px;line-height:1.6;&quot;&gt;+ getCep(): String&lt;br/&gt;+ getNomeInstituicao(): String&lt;br/&gt;+ getNumeroImovel(): String&lt;br/&gt;+ getDescricao(): String&lt;br/&gt;+ getFotoPerfil(): byte[]&lt;br/&gt;+ setNomeInstituicao(String): void&lt;br/&gt;+ setCep(String): void&lt;br/&gt;# canEqual(Object): boolean&lt;br/&gt;+ toString(): String&lt;br/&gt;+ setNumeroImovel(String): void&lt;br/&gt;+ setDescricao(String): void&lt;br/&gt;+ hashCode(): int&lt;br/&gt;+ setFotoPerfil(byte[]): void&lt;br/&gt;+ equals(Object): boolean&lt;/p&gt;" style="verticalAlign=top;align=left;overflow=fill;fontSize=14;fontFamily=Helvetica;html=1;rounded=0;shadow=0;comic=0;labelBackgroundColor=none;strokeWidth=1;" parent="1" vertex="1">
          <mxGeometry x="-970" y="-80" width="247" height="498" as="geometry" />
        </mxCell>
        <mxCell id="node8" value="&lt;p style=&quot;margin:0px;margin-top:4px;text-align:center;&quot;&gt;&lt;b&gt;InstituicaoCadastroDto&lt;/b&gt;&lt;/p&gt;&lt;hr size=&quot;1&quot;/&gt;&lt;p style=&quot;margin:0 0 0 4px;line-height:1.6;&quot;&gt;- nomeInstituicao: String&lt;br/&gt;- cep: String&lt;br/&gt;- numeroImovel: String&lt;br/&gt;- fotoPerfil: byte[]&lt;br/&gt;- descricao: String&lt;/p&gt;&lt;hr size=&quot;1&quot;/&gt;&lt;p style=&quot;margin:0 0 0 4px;line-height:1.6;&quot;&gt;+ getFotoPerfil(): byte[]&lt;br/&gt;+ getNomeInstituicao(): String&lt;br/&gt;+ getCep(): String&lt;br/&gt;+ getNumeroImovel(): String&lt;br/&gt;+ hashCode(): int&lt;br/&gt;+ toString(): String&lt;br/&gt;+ getDescricao(): String&lt;br/&gt;+ setNomeInstituicao(String): void&lt;br/&gt;+ setCep(String): void&lt;br/&gt;+ setNumeroImovel(String): void&lt;br/&gt;+ setDescricao(String): void&lt;br/&gt;+ setFotoPerfil(byte[]): void&lt;br/&gt;+ equals(Object): boolean&lt;br/&gt;# canEqual(Object): boolean&lt;/p&gt;" style="verticalAlign=top;align=left;overflow=fill;fontSize=14;fontFamily=Helvetica;html=1;rounded=0;shadow=0;comic=0;labelBackgroundColor=none;strokeWidth=1;" parent="1" vertex="1">
          <mxGeometry x="-680" y="-79.5" width="247" height="498" as="geometry" />
        </mxCell>
        <mxCell id="node14" value="&lt;p style=&quot;margin:0px;margin-top:4px;text-align:center;&quot;&gt;&lt;b&gt;InstituicaoConsultaDto&lt;/b&gt;&lt;/p&gt;&lt;hr size=&quot;1&quot;/&gt;&lt;p style=&quot;margin:0 0 0 4px;line-height:1.6;&quot;&gt;- cep: String&lt;br/&gt;- nomeInstituicao: String&lt;br/&gt;- fotoPerfil: byte[]&lt;br/&gt;- numeroImovel: String&lt;br/&gt;- descricao: String&lt;br/&gt;- idInstituicao: int&lt;/p&gt;&lt;hr size=&quot;1&quot;/&gt;&lt;p style=&quot;margin:0 0 0 4px;line-height:1.6;&quot;&gt;+ getFotoPerfil(): byte[]&lt;br/&gt;+ getIdInstituicao(): int&lt;br/&gt;+ getNomeInstituicao(): String&lt;br/&gt;+ getCep(): String&lt;br/&gt;+ getNumeroImovel(): String&lt;br/&gt;+ getDescricao(): String&lt;br/&gt;+ setIdInstituicao(int): void&lt;br/&gt;+ setNomeInstituicao(String): void&lt;br/&gt;+ setFotoPerfil(byte[]): void&lt;br/&gt;# canEqual(Object): boolean&lt;br/&gt;+ hashCode(): int&lt;br/&gt;+ toString(): String&lt;br/&gt;+ setCep(String): void&lt;br/&gt;+ setDescricao(String): void&lt;br/&gt;+ equals(Object): boolean&lt;br/&gt;+ setNumeroImovel(String): void&lt;/p&gt;" style="verticalAlign=top;align=left;overflow=fill;fontSize=14;fontFamily=Helvetica;html=1;rounded=0;shadow=0;comic=0;labelBackgroundColor=none;strokeWidth=1;" parent="1" vertex="1">
          <mxGeometry x="-390" y="-80" width="247" height="570" as="geometry" />
        </mxCell>
        <mxCell id="node7" value="&lt;p style=&quot;margin:0px;margin-top:4px;text-align:center;&quot;&gt;&lt;b&gt;InstituicaoController&lt;/b&gt;&lt;/p&gt;&lt;hr size=&quot;1&quot;/&gt;&lt;p style=&quot;margin:0 0 0 4px;line-height:1.6;&quot;&gt;~ repositoryInst: InstituicaoRepository&lt;/p&gt;&lt;hr size=&quot;1&quot;/&gt;&lt;p style=&quot;margin:0 0 0 4px;line-height:1.6;&quot;&gt;+ consultarPorId(Integer): ResponseEntity&amp;lt;InstituicaoConsultaDto&amp;gt;&lt;br/&gt;+ criacaoProduto(InstituicaoCadastroDto): ResponseEntity&amp;lt;InstituicaoConsultaDto&amp;gt;&lt;br/&gt;+ atualizarEvento(InstituicaoAtualizarDto, Integer): ResponseEntity&amp;lt;InstituicaoConsultaDto&amp;gt;&lt;br/&gt;+ listagemInstituicao(): ResponseEntity&amp;lt;List&amp;lt;InstituicaoConsultaDto&amp;gt;&amp;gt;&lt;br/&gt;+ deletarPorId(Integer): ResponseEntity&amp;lt;Void&amp;gt;&lt;/p&gt;" style="verticalAlign=top;align=left;overflow=fill;fontSize=14;fontFamily=Helvetica;html=1;rounded=0;shadow=0;comic=0;labelBackgroundColor=none;strokeWidth=1;" parent="1" vertex="1">
          <mxGeometry x="270" y="146.5" width="609" height="186" as="geometry" />
        </mxCell>
        <mxCell id="node9" value="&lt;p style=&quot;margin:0px;margin-top:4px;text-align:center;&quot;&gt;&lt;b&gt;InstituicaoFamilia&lt;/b&gt;&lt;/p&gt;&lt;hr size=&quot;1&quot;/&gt;&lt;p style=&quot;margin:0 0 0 4px;line-height:1.6;&quot;&gt;- idFamiliaInstituicao: Integer&lt;br/&gt;- fkInstituicao: Instituicao&lt;br/&gt;- fkFamilia: Familia&lt;/p&gt;&lt;hr size=&quot;1&quot;/&gt;&lt;p style=&quot;margin:0 0 0 4px;line-height:1.6;&quot;&gt;+ getIdFamiliaInstituicao(): Integer&lt;br/&gt;+ getFkInstituicao(): Instituicao&lt;br/&gt;+ getFkFamilia(): Familia&lt;br/&gt;+ setIdFamiliaInstituicao(Integer): void&lt;br/&gt;+ setFkInstituicao(Instituicao): void&lt;br/&gt;+ setFkFamilia(Familia): void&lt;br/&gt;+ builder(): InstituicaoFamiliaBuilder&lt;/p&gt;" style="verticalAlign=top;align=left;overflow=fill;fontSize=14;fontFamily=Helvetica;html=1;rounded=0;shadow=0;comic=0;labelBackgroundColor=none;strokeWidth=1;" parent="1" vertex="1">
          <mxGeometry x="3377" y="1115" width="271" height="282" as="geometry" />
        </mxCell>
        <mxCell id="node34" value="&lt;p style=&quot;margin:0px;margin-top:4px;text-align:center;&quot;&gt;&lt;b&gt;InstituicaoFamiliaController&lt;/b&gt;&lt;/p&gt;&lt;hr size=&quot;1&quot;/&gt;&lt;p style=&quot;margin:0 0 0 4px;line-height:1.6;&quot;&gt;- familiarRepositorio: FamiliarRepositorio&lt;br/&gt;- donatarioRepositorio: DonatarioRepositorio&lt;/p&gt;" style="verticalAlign=top;align=left;overflow=fill;fontSize=14;fontFamily=Helvetica;html=1;rounded=0;shadow=0;comic=0;labelBackgroundColor=none;strokeWidth=1;" parent="1" vertex="1">
          <mxGeometry x="3040" y="1115" width="314" height="94" as="geometry" />
        </mxCell>
        <mxCell id="node30" value="&lt;p style=&quot;margin:0px;margin-top:4px;text-align:center;&quot;&gt;&lt;b&gt;InstituicaoMapper&lt;/b&gt;&lt;/p&gt;&lt;hr size=&quot;1&quot;/&gt;&lt;p style=&quot;margin:0 0 0 4px;line-height:1.6;&quot;&gt;+ cadastroDtoToInstituicao(InstituicaoCadastroDto): Instituicao&lt;br/&gt;+ atualizacaoDtoToInstituicao(InstituicaoAtualizarDto): Instituicao&lt;br/&gt;+ instituicaoToListagemDto(Instituicao): InstituicaoConsultaDto&lt;br/&gt;+ listagemDtoToInstituicaoLista(List&amp;lt;Instituicao&amp;gt;): List&amp;lt;InstituicaoConsultaDto&amp;gt;&lt;/p&gt;" style="verticalAlign=top;align=left;overflow=fill;fontSize=14;fontFamily=Helvetica;html=1;rounded=0;shadow=0;comic=0;labelBackgroundColor=none;strokeWidth=1;" parent="1" vertex="1">
          <mxGeometry x="270" y="-79.5" width="537" height="146" as="geometry" />
        </mxCell>
        <mxCell id="node26" value="&lt;p style=&quot;margin:0px;margin-top:4px;text-align:center;&quot;&gt;&lt;b&gt;Necessidade&lt;/b&gt;&lt;/p&gt;&lt;hr size=&quot;1&quot;/&gt;&lt;p style=&quot;margin:0 0 0 4px;line-height:1.6;&quot;&gt;- descricao: String&lt;br/&gt;- tipo: String&lt;br/&gt;- idNecessidade: int&lt;br/&gt;- instituicao: Instituicao&lt;/p&gt;&lt;hr size=&quot;1&quot;/&gt;&lt;p style=&quot;margin:0 0 0 4px;line-height:1.6;&quot;&gt;+ getInstituicao(): Instituicao&lt;br/&gt;+ getIdNecessidade(): int&lt;br/&gt;+ getTipo(): String&lt;br/&gt;+ getDescricao(): String&lt;br/&gt;+ setIdNecessidade(int): void&lt;br/&gt;+ setTipo(String): void&lt;br/&gt;+ setDescricao(String): void&lt;br/&gt;+ setInstituicao(Instituicao): void&lt;br/&gt;+ builder(): NecessidadeBuilder&lt;/p&gt;" style="verticalAlign=top;align=left;overflow=fill;fontSize=14;fontFamily=Helvetica;html=1;rounded=0;shadow=0;comic=0;labelBackgroundColor=none;strokeWidth=1;" parent="1" vertex="1">
          <mxGeometry x="1470" y="1480" width="238" height="354" as="geometry" />
        </mxCell>
        <mxCell id="node17" value="&lt;p style=&quot;margin:0px;margin-top:4px;text-align:center;&quot;&gt;&lt;b&gt;NecessidadeController&lt;/b&gt;&lt;/p&gt;&lt;hr size=&quot;1&quot;/&gt;&lt;p style=&quot;margin:0 0 0 4px;line-height:1.6;&quot;&gt;- donatarioRepositorio: DonatarioRepositorio&lt;br/&gt;- familiarRepositorio: FamiliarRepositorio&lt;/p&gt;" style="verticalAlign=top;align=left;overflow=fill;fontSize=14;fontFamily=Helvetica;html=1;rounded=0;shadow=0;comic=0;labelBackgroundColor=none;strokeWidth=1;" parent="1" vertex="1">
          <mxGeometry x="1110" y="1470" width="314" height="94" as="geometry" />
        </mxCell>
        <mxCell id="node18" value="&lt;p style=&quot;margin:0px;margin-top:4px;text-align:center;&quot;&gt;&lt;b&gt;RegistroController&lt;/b&gt;&lt;/p&gt;&lt;hr size=&quot;1&quot;/&gt;&lt;p style=&quot;margin:0 0 0 4px;line-height:1.6;&quot;&gt;- registroRepositorio: RegistroRepositorio&lt;br/&gt;- donatarioRepositorio: DonatarioRepositorio&lt;/p&gt;" style="verticalAlign=top;align=left;overflow=fill;fontSize=14;fontFamily=Helvetica;html=1;rounded=0;shadow=0;comic=0;labelBackgroundColor=none;strokeWidth=1;" parent="1" vertex="1">
          <mxGeometry x="1110" y="760.5" width="314" height="94" as="geometry" />
        </mxCell>
        <mxCell id="node24" value="&lt;p style=&quot;margin:0px;margin-top:4px;text-align:center;&quot;&gt;&lt;b&gt;RegistroVisita&lt;/b&gt;&lt;/p&gt;&lt;hr size=&quot;1&quot;/&gt;&lt;p style=&quot;margin:0 0 0 4px;line-height:1.6;&quot;&gt;- descricao: String&lt;br/&gt;- donatario: Donatario&lt;br/&gt;- idRegistroVisita: Integer&lt;br/&gt;- dataVisita: LocalDate&lt;/p&gt;&lt;hr size=&quot;1&quot;/&gt;&lt;p style=&quot;margin:0 0 0 4px;line-height:1.6;&quot;&gt;+ setIdRegistroVisita(Integer): void&lt;br/&gt;+ getIdRegistroVisita(): Integer&lt;br/&gt;+ getDonatario(): Donatario&lt;br/&gt;+ getDataVisita(): LocalDate&lt;br/&gt;+ getDescricao(): String&lt;br/&gt;+ setDonatario(Donatario): void&lt;br/&gt;+ setDataVisita(LocalDate): void&lt;br/&gt;+ setDescricao(String): void&lt;br/&gt;+ builder(): RegistroVisitaBuilder&lt;/p&gt;" style="verticalAlign=top;align=left;overflow=fill;fontSize=14;fontFamily=Helvetica;html=1;rounded=0;shadow=0;comic=0;labelBackgroundColor=none;strokeWidth=1;" parent="1" vertex="1">
          <mxGeometry x="1470" y="761" width="250" height="354" as="geometry" />
        </mxCell>
        <mxCell id="node20" value="&lt;p style=&quot;margin:0px;margin-top:4px;text-align:center;&quot;&gt;&lt;b&gt;Usuario&lt;/b&gt;&lt;/p&gt;&lt;hr size=&quot;1&quot;/&gt;&lt;p style=&quot;margin:0 0 0 4px;line-height:1.6;&quot;&gt;- senha: String&lt;br/&gt;- email: String&lt;br/&gt;- coordenador: Boolean&lt;br/&gt;- cpf: String&lt;br/&gt;- nomeUsuario: String&lt;br/&gt;- idUsuario: int&lt;br/&gt;- FkInstituicao: Instituicao&lt;/p&gt;&lt;hr size=&quot;1&quot;/&gt;&lt;p style=&quot;margin:0 0 0 4px;line-height:1.6;&quot;&gt;+ setNomeUsuario(String): void&lt;br/&gt;+ getIdUsuario(): int&lt;br/&gt;+ setSenha(String): void&lt;br/&gt;+ setCpf(String): void&lt;br/&gt;+ builder(): UsuarioBuilder&lt;br/&gt;+ getCoordenador(): Boolean&lt;br/&gt;+ getNomeUsuario(): String&lt;br/&gt;+ getEmail(): String&lt;br/&gt;+ setFkInstituicao(Instituicao): void&lt;br/&gt;+ getSenha(): String&lt;br/&gt;+ getCpf(): String&lt;br/&gt;+ setEmail(String): void&lt;br/&gt;+ getFkInstituicao(): Instituicao&lt;br/&gt;+ setCoordenador(Boolean): void&lt;br/&gt;+ setIdUsuario(int): void&lt;/p&gt;" style="verticalAlign=top;align=left;overflow=fill;fontSize=14;fontFamily=Helvetica;html=1;rounded=0;shadow=0;comic=0;labelBackgroundColor=none;strokeWidth=1;" parent="1" vertex="1">
          <mxGeometry x="1950" y="-79.5" width="253" height="570" as="geometry" />
        </mxCell>
        <mxCell id="node28" value="&lt;p style=&quot;margin:0px;margin-top:4px;text-align:center;&quot;&gt;&lt;b&gt;UsuarioAtualizarDto&lt;/b&gt;&lt;/p&gt;&lt;hr size=&quot;1&quot;/&gt;&lt;p style=&quot;margin:0 0 0 4px;line-height:1.6;&quot;&gt;- nomeUsuario: String&lt;br/&gt;- email: String&lt;br/&gt;- coordenador: Boolean&lt;br/&gt;- cpf: String&lt;/p&gt;&lt;hr size=&quot;1&quot;/&gt;&lt;p style=&quot;margin:0 0 0 4px;line-height:1.6;&quot;&gt;+ setCoordenador(Boolean): void&lt;br/&gt;+ getNomeUsuario(): String&lt;br/&gt;+ getEmail(): String&lt;br/&gt;+ getCoordenador(): Boolean&lt;br/&gt;+ toString(): String&lt;br/&gt;+ getCpf(): String&lt;br/&gt;+ setNomeUsuario(String): void&lt;br/&gt;+ setEmail(String): void&lt;br/&gt;+ setCpf(String): void&lt;br/&gt;+ equals(Object): boolean&lt;br/&gt;# canEqual(Object): boolean&lt;br/&gt;+ hashCode(): int&lt;/p&gt;" style="verticalAlign=top;align=left;overflow=fill;fontSize=14;fontFamily=Helvetica;html=1;rounded=0;shadow=0;comic=0;labelBackgroundColor=none;strokeWidth=1;" parent="1" vertex="1">
          <mxGeometry x="1110" y="-79.5" width="242" height="426" as="geometry" />
        </mxCell>
        <mxCell id="node23" value="&lt;p style=&quot;margin:0px;margin-top:4px;text-align:center;&quot;&gt;&lt;b&gt;UsuarioCadastroDto&lt;/b&gt;&lt;/p&gt;&lt;hr size=&quot;1&quot;/&gt;&lt;p style=&quot;margin:0 0 0 4px;line-height:1.6;&quot;&gt;- senha: String&lt;br/&gt;- cpf: String&lt;br/&gt;- nomeUsuario: String&lt;br/&gt;- coordenador: Boolean&lt;br/&gt;- email: String&lt;br/&gt;- fkInstituicao: Integer&lt;/p&gt;&lt;hr size=&quot;1&quot;/&gt;&lt;p style=&quot;margin:0 0 0 4px;line-height:1.6;&quot;&gt;+ getSenha(): String&lt;br/&gt;+ getNomeUsuario(): String&lt;br/&gt;+ getEmail(): String&lt;br/&gt;+ setFkInstituicao(Integer): void&lt;br/&gt;+ getCpf(): String&lt;br/&gt;+ getCoordenador(): Boolean&lt;br/&gt;+ getFkInstituicao(): Integer&lt;br/&gt;# canEqual(Object): boolean&lt;br/&gt;+ toString(): String&lt;br/&gt;+ setNomeUsuario(String): void&lt;br/&gt;+ setEmail(String): void&lt;br/&gt;+ equals(Object): boolean&lt;br/&gt;+ setSenha(String): void&lt;br/&gt;+ setCpf(String): void&lt;br/&gt;+ hashCode(): int&lt;br/&gt;+ setCoordenador(Boolean): void&lt;/p&gt;" style="verticalAlign=top;align=left;overflow=fill;fontSize=14;fontFamily=Helvetica;html=1;rounded=0;shadow=0;comic=0;labelBackgroundColor=none;strokeWidth=1;" parent="1" vertex="1">
          <mxGeometry x="1670" y="-79.5" width="242" height="570" as="geometry" />
        </mxCell>
        <mxCell id="node25" value="&lt;p style=&quot;margin:0px;margin-top:4px;text-align:center;&quot;&gt;&lt;b&gt;UsuarioConsultaDto&lt;/b&gt;&lt;/p&gt;&lt;hr size=&quot;1&quot;/&gt;&lt;p style=&quot;margin:0 0 0 4px;line-height:1.6;&quot;&gt;- coordenador: Boolean&lt;br/&gt;- email: String&lt;br/&gt;- idUsuario: Integer&lt;br/&gt;- cpf: String&lt;br/&gt;- fkInstituicaoId: Integer&lt;br/&gt;- nomeUsuario: String&lt;/p&gt;&lt;hr size=&quot;1&quot;/&gt;&lt;p style=&quot;margin:0 0 0 4px;line-height:1.6;&quot;&gt;+ getIdUsuario(): Integer&lt;br/&gt;+ getCoordenador(): Boolean&lt;br/&gt;+ setCpf(String): void&lt;br/&gt;+ getNomeUsuario(): String&lt;br/&gt;# canEqual(Object): boolean&lt;br/&gt;+ getEmail(): String&lt;br/&gt;+ getCpf(): String&lt;br/&gt;+ getFkInstituicaoId(): Integer&lt;br/&gt;+ hashCode(): int&lt;br/&gt;+ setIdUsuario(Integer): void&lt;br/&gt;+ equals(Object): boolean&lt;br/&gt;+ setCoordenador(Boolean): void&lt;br/&gt;+ setNomeUsuario(String): void&lt;br/&gt;+ toString(): String&lt;br/&gt;+ setFkInstituicaoId(Integer): void&lt;br/&gt;+ setEmail(String): void&lt;/p&gt;" style="verticalAlign=top;align=left;overflow=fill;fontSize=14;fontFamily=Helvetica;html=1;rounded=0;shadow=0;comic=0;labelBackgroundColor=none;strokeWidth=1;" parent="1" vertex="1">
          <mxGeometry x="1390" y="-79.5" width="243" height="570" as="geometry" />
        </mxCell>
        <mxCell id="node12" value="&lt;p style=&quot;margin:0px;margin-top:4px;text-align:center;&quot;&gt;&lt;b&gt;UsuarioController&lt;/b&gt;&lt;/p&gt;&lt;hr size=&quot;1&quot;/&gt;&lt;p style=&quot;margin:0 0 0 4px;line-height:1.6;&quot;&gt;- instituicaoRepository: InstituicaoRepository&lt;br/&gt;- usuarioRepository: UsuarioRepository&lt;/p&gt;&lt;hr size=&quot;1&quot;/&gt;&lt;p style=&quot;margin:0 0 0 4px;line-height:1.6;&quot;&gt;+ consultarPorId(Integer): ResponseEntity&amp;lt;UsuarioConsultaDto&amp;gt;&lt;br/&gt;+ deletarPorId(Integer): ResponseEntity&amp;lt;Void&amp;gt;&lt;br/&gt;+ listagemUsuarios(): ResponseEntity&amp;lt;List&amp;lt;UsuarioConsultaDto&amp;gt;&amp;gt;&lt;br/&gt;+ criacaoProduto(UsuarioCadastroDto): ResponseEntity&amp;lt;UsuarioConsultaDto&amp;gt;&lt;br/&gt;+ atualizarEvento(UsuarioAtualizarDto, Integer): ResponseEntity&amp;lt;UsuarioConsultaDto&amp;gt;&lt;/p&gt;" style="verticalAlign=top;align=left;overflow=fill;fontSize=14;fontFamily=Helvetica;html=1;rounded=0;shadow=0;comic=0;labelBackgroundColor=none;strokeWidth=1;" parent="1" vertex="1">
          <mxGeometry x="2230" y="117.5" width="575" height="210" as="geometry" />
        </mxCell>
        <mxCell id="node15" value="&lt;p style=&quot;margin:0px;margin-top:4px;text-align:center;&quot;&gt;&lt;b&gt;UsuarioMapper&lt;/b&gt;&lt;/p&gt;&lt;hr size=&quot;1&quot;/&gt;&lt;p style=&quot;margin:0 0 0 4px;line-height:1.6;&quot;&gt;+ cadastrarDtoParaUsuario(UsuarioCadastroDto): Usuario&lt;br/&gt;+ usuarioParaConsultaDto(Usuario): UsuarioConsultaDto&lt;br/&gt;+ atualizarDtoParaUsuario(UsuarioAtualizarDto, Usuario): Usuario&lt;br/&gt;+ listagemDtoList(List&amp;lt;Usuario&amp;gt;): List&amp;lt;UsuarioConsultaDto&amp;gt;&lt;/p&gt;" style="verticalAlign=top;align=left;overflow=fill;fontSize=14;fontFamily=Helvetica;html=1;rounded=0;shadow=0;comic=0;labelBackgroundColor=none;strokeWidth=1;" parent="1" vertex="1">
          <mxGeometry x="2230" y="-79.5" width="440" height="146" as="geometry" />
        </mxCell>
      </root>
    </mxGraphModel>
  </diagram>
</mxfile>
